<svg class="svg svg--work <% if ( locals.style ) { %>svg--<%= locals.style %><% } %>">
    <path d="M0,26.8h18.7V3.5H0V26.8z M2.3,7h3.5v1.2H2.3V7z M2.3,12.8h14V14h-14V12.8z M2.3,15.2H14v1.2H2.3V15.2z M2.3,17.5h14v1.2h-14V17.5z M2.3,19.8h14V21h-14V19.8z M2.3,22.2h12.8v1.2H2.3V22.2z"/>
    <rect x="23.3" y="1.2" width="4.7" height="11.7"/>
    <polygon points="23.3,21 24.6,23.4 26.9,23.4 28,21 28,13.9 23.3,13.9"/>
    <rect x="21" y="3.5" width="1.2" height="9.3"/>
    <rect x="24.5" y="24.5" width="2.3" height="2.3"/>
</svg>
