<svg class="svg svg--logo <% if ( locals.style ) { %>svg--<%= locals.style %><% } %>">
    <path d="M76.0599439,9.41059046 C76.0599439,10.0088254 75.5294707,10.4964278 74.8797113,10.4964278 L69.1202887,10.4964278 C68.4705293,10.4964278 67.9428629,10.0088254 67.9428629,9.41059046 L67.9428629,0 L65,0 L65,9.29039714 C65,11.3814877 66.8482358,13 69.1202887,13 L74.8797113,13 C77.1531676,13 79,11.3814877 79,9.29039714 L79,0 L76.0599439,0 L76.0599439,9.41059046"></path>
    <polyline points="14 0 0 0 0 2.50084051 5.75054332 2.50084051 5.75054332 13 8.52461495 13 8.52461495 2.50084051 14 2.50084051 14 0"></polyline>
    <path d="M35.8521505,8.19499895 L39.0013441,2.59644883 L42.1478495,8.19499895 L35.8521505,8.19499895 Z M44.8481183,13 L48,13 L40.6975806,0 L37.3037634,0 L30,13 L33.1545699,13 L34.4448925,10.6985711 L43.5524194,10.6985711 L44.8481183,13 Z"></path>
    <polyline points="29 2.50304622 29 0 16 0 16 13 29 13 29 10.4969538 18.9690834 10.4969538 18.9690834 7.76039916 28.3348574 7.76039916 28.3348574 5.25735294 18.9690834 5.25735294 18.9690834 2.50304622 29 2.50304622"></polyline>
    <polyline points="93 2.50304622 93 0 80 0 80 13 93 13 93 10.4969538 82.9673452 10.4969538 82.9673452 7.76039916 92.3306847 7.76039916 92.3306847 5.25735294 82.9673452 5.25735294 82.9673452 2.50304622 93 2.50304622"></polyline>
    <path d="M60.3003204,5.61767178 L55.1687542,5.61767178 L55.1687542,8.12124396 L59.7851248,8.12124396 C60.1222449,8.12124396 60.1507913,8.24690061 60.15351,8.39714226 L60.15351,10.4964278 L52.9910671,10.4964278 C52.3603262,10.4964278 51.8519274,10.0088254 51.8519274,9.41059046 L51.8519274,3.58667787 C51.8519274,2.98844295 52.3603262,2.50084051 52.9910671,2.50084051 L62.502476,2.50084051 L62.502476,0 L52.9910671,0 C50.7902709,0 49,1.61578063 49,3.70823702 L49,9.29039714 C49,11.3814877 50.7902709,13 52.9910671,13 L63,13 L63,7.72105484 C63,7.17745325 62.8518303,5.62859845 60.3003204,5.61767178"></path>
</svg>
